PathFileType   4   (X/Y/Z)																																																																																																																							
DataRate  CameraRate  NumFrames  NumMarkers  Units  OrigDataRate  OrigDataStartFrame  OrigNumFrames  																																																																																																																							
  120.0      120.0        11         39         mm      120.0          1        109																																																																																																																							
Frame#      Time	midhip		hip_r		hip_l		knee_r		knee_l		ankle_r		ankle_l		midasis		asis_r		asis_l		psis_r		psis_l		epicondLat_r		epicondLat_l		epicondMed_r		epicondMed_l		malleolusLat_r		malleolusLat_l		malleolusMedv_r		malleolusMedv_l		heel_r		heel_l		sternalnotch		xyphoidprocess		neck		subclavicle_r		subclavicle_l		toe_r		toe_l		thighwand_r		thighwand_l		upperleg1_r		upperleg1_l		upperleg2_r		upperleg2_l		shankwand_r		shankwand_l		lowerleg1_r		lowerleg1_l		
              X1          Y1          Z1          X2          Y2          Z2          X3          Y3          Z3          X4          Y4          Z4          X5          Y5          Z5          X6          Y6          Z6          X7          Y7          Z7          X8          Y8          Z8          X9          Y9          Z9          X10          Y10          Z10          X11          Y11          Z11          X12          Y12          Z12          X13          Y13          Z13          X14          Y14          Z14          X15          Y15          Z15          X16          Y16          Z16          X17          Y17          Z17          X18          Y18          Z18          X19          Y19          Z19          X20          Y20          Z20          X21          Y21          Z21          X22          Y22          Z22          X23          Y23          Z23          X24          Y24          Z24          X25          Y25          Z25          X26          Y26          Z26          X27          Y27          Z27          X28          Y28          Z28          X29          Y29          Z29          X30          Y30          Z30          X31          Y31          Z31          X32          Y32          Z32          X33          Y33          Z33          X34          Y34          Z34          X35          Y35          Z35          X36          Y36          Z36          X37          Y37          Z37          X38          Y38          Z38          X39          Y39          Z39          																																																																																																																							

	1	1.025	1472.073	881.695	-251.469	1469.002	879.771	-176.341	1475.144	883.62	-326.596	1442.349	469.841	-131.772	1431.95	461.003	-354.559	1405.456	69.849	-128.746	1382.869	71.217	-364.899	1566.465	959.619	-245.614	1561.591	956.565	-126.39	1571.339	962.673	-364.838	1382.171	1018.414	-219.603	1388.676	1016.941	-304.635	1451.634	475.487	-74.291	1439.917	463.984	-411.931	1427.088	476.475	-183.552	1427.819	465.593	-300.802	1390.968	71.468	-91.497	1365.097	74.372	-399.47	1415.492	83.801	-158.208	1391.564	83.81	-337.139	1342.823	42.592	-144.048	1317.58	42.875	-352.085	1489.991	1369.896	-233.792	1570.711	1205.5	-244.602	1377.332	1437.13	-237.619	1499.425	1358.705	-181.48	1512.923	1364.648	-288.824	1525.728	39.27	-99.67	1500.488	41.278	-401.847	1506.376	590.829	-9.311	1595.826	553.007	-341.171	1522.08	650.736	-82.053	1534.925	618.496	-381.075	1513.448	563.487	-96.935	1508.843	535.895	-385.031	1417.535	204.824	-5.342	1405.625	212.108	-479.257	1406.454	172.068	-77.969	1384.645	174.106	-410.275
	2	1.03333	1472.016	881.721	-251.555	1468.927	879.809	-176.428	1475.104	883.634	-326.682	1442.365	469.833	-131.818	1431.746	461	-354.506	1405.458	69.859	-128.751	1382.798	71.207	-364.891	1566.41	959.641	-245.691	1561.511	956.608	-126.527	1571.309	962.674	-364.855	1382.191	1018.407	-219.617	1388.597	1016.983	-304.6	1451.646	475.486	-74.336	1439.785	463.952	-411.87	1427.11	476.345	-183.313	1428.091	465.67	-300.737	1390.968	71.481	-91.503	1365.07	74.355	-399.485	1415.597	83.81	-158.219	1391.521	83.748	-337.175	1342.823	42.598	-144.061	1317.595	42.868	-352.082	1489.927	1369.997	-233.809	1570.689	1205.606	-244.386	1377.235	1437.191	-237.599	1499.367	1358.883	-181.596	1512.858	1364.676	-288.713	1525.731	39.267	-99.643	1500.496	41.269	-401.829	1506.385	590.84	-9.313	1595.893	553.001	-341.204	1522.035	650.71	-82.072	1534.945	618.539	-381.113	1513.457	563.579	-96.818	1509.045	536.164	-385.014	1417.567	204.818	-5.383	1405.653	212.083	-479.329	1406.548	172.135	-77.935	1384.733	174.07	-410.247
	3	1.04167	1471.962	881.745	-251.602	1468.873	879.843	-176.475	1475.052	883.647	-326.729	1442.375	469.836	-131.84	1431.584	460.99	-354.451	1405.444	69.892	-128.767	1382.743	71.2	-364.889	1566.36	959.662	-245.747	1561.46	956.646	-126.617	1571.259	962.678	-364.877	1382.219	1018.407	-219.639	1388.52	1017.014	-304.607	1451.655	475.494	-74.359	1439.673	463.92	-411.81	1427.144	476.214	-183.182	1428.484	465.618	-300.651	1390.953	71.517	-91.52	1365.047	74.344	-399.501	1415.628	83.861	-158.194	1391.425	83.793	-337.184	1342.826	42.615	-144.083	1317.621	42.884	-352.096	1489.84	1370.12	-233.823	1570.609	1205.717	-244.138	1377.169	1437.274	-237.627	1499.342	1359.119	-181.732	1512.709	1364.684	-288.599	1525.721	39.273	-99.6	1500.513	41.276	-401.836	1506.377	590.843	-9.311	1595.929	552.952	-341.159	1522.003	650.661	-82.122	1534.945	618.539	-381.113	1513.467	563.616	-96.766	1509.343	536.394	-384.945	1417.603	204.807	-5.419	1405.687	212.06	-479.38	1406.635	172.262	-77.93	1384.655	174.063	-410.397
	4	1.05	1471.925	881.76	-251.586	1468.857	879.867	-176.458	1474.994	883.652	-326.715	1442.382	469.849	-131.841	1431.52	460.967	-354.418	1405.435	69.931	-128.792	1382.724	71.2	-364.895	1566.318	959.684	-245.768	1561.452	956.684	-126.637	1571.184	962.685	-364.898	1382.258	1018.398	-219.685	1388.449	1017.023	-304.687	1451.663	475.505	-74.36	1439.622	463.893	-411.775	1427.122	476.244	-183.245	1427.914	465.737	-300.865	1390.944	71.554	-91.544	1365.036	74.345	-399.51	1415.571	83.854	-158.232	1391.332	83.852	-337.175	1342.825	42.631	-144.096	1317.651	42.91	-352.117	1489.802	1370.223	-233.848	1570.826	1205.944	-244.133	1377.036	1437.205	-237.713	1499.297	1359.234	-181.771	1512.704	1364.825	-288.595	1525.704	39.274	-99.601	1500.535	41.3	-401.86	1506.368	590.846	-9.304	1595.943	552.883	-341.071	1522.015	650.626	-82.147	1534.966	618.582	-381.15	1513.462	563.627	-96.802	1508.992	536.109	-385.065	1417.64	204.795	-5.443	1405.728	212.049	-479.4	1406.548	172.346	-77.953	1384.629	174.058	-410.452
	5	1.05833	1471.913	881.761	-251.522	1468.879	879.879	-176.392	1474.947	883.643	-326.652	1442.399	469.868	-131.828	1431.574	460.952	-354.422	1405.444	69.959	-128.81	1382.737	71.205	-364.908	1566.293	959.707	-245.758	1561.481	956.722	-126.603	1571.104	962.692	-364.914	1382.295	1018.369	-219.758	1388.388	1017.009	-304.833	1451.676	475.516	-74.345	1439.649	463.891	-411.782	1427.114	476.366	-183.338	1427.087	465.725	-301.164	1390.95	71.58	-91.563	1365.032	74.354	-399.515	1415.541	83.82	-158.275	1391.307	83.831	-337.162	1342.816	42.627	-144.082	1317.668	42.923	-352.126	1489.7	1370.314	-233.897	1570.821	1206.081	-244.16	1376.822	1437.296	-237.899	1499.047	1359.26	-181.803	1512.763	1364.996	-288.589	1525.681	39.267	-99.707	1500.553	41.333	-401.895	1506.363	590.843	-9.292	1595.937	552.822	-340.967	1522.03	650.707	-82.11	1534.95	618.533	-381.102	1513.458	563.639	-96.837	1508.432	535.594	-385.205	1417.674	204.786	-5.457	1405.772	212.058	-479.396	1406.224	172.32	-78.062	1384.742	174.049	-410.367
	6	1.06667	1471.907	881.753	-251.437	1468.911	879.877	-176.305	1474.903	883.63	-326.569	1442.422	469.885	-131.813	1431.701	460.949	-354.46	1405.457	69.976	-128.824	1382.757	71.207	-364.922	1566.27	959.722	-245.726	1561.517	956.745	-126.526	1571.024	962.699	-364.927	1382.327	1018.327	-219.84	1388.353	1016.981	-304.991	1451.69	475.524	-74.327	1439.73	463.914	-411.825	1427.088	476.475	-183.358	1426.923	465.551	-301.189	1390.958	71.594	-91.58	1365.023	74.362	-399.513	1415.525	83.852	-158.255	1391.21	83.773	-337.123	1342.804	42.614	-144.061	1317.66	42.915	-352.11	1489.59	1370.346	-233.944	1570.596	1206.05	-244.113	1376.632	1437.505	-238.129	1498.826	1359.265	-181.846	1512.756	1365.03	-288.582	1525.646	39.261	-99.887	1500.559	41.364	-401.929	1506.357	590.827	-9.278	1595.932	552.781	-340.875	1522.089	650.802	-82.048	1534.894	618.397	-380.979	1513.454	563.604	-96.823	1508.303	535.417	-385.164	1417.704	204.784	-5.462	1405.818	212.086	-479.372	1406.1	172.209	-78.121	1384.829	174.049	-410.298
	7	1.075	1471.881	881.74	-251.36	1468.911	879.861	-176.227	1474.851	883.62	-326.492	1442.446	469.896	-131.8	1431.818	460.944	-354.511	1405.466	69.987	-128.84	1382.773	71.213	-364.928	1566.234	959.724	-245.679	1561.519	956.741	-126.412	1570.949	962.707	-364.946	1382.371	1018.276	-219.917	1388.342	1016.953	-305.122	1451.703	475.528	-74.312	1439.81	463.933	-411.88	1427.083	476.484	-183.379	1427.046	465.583	-301.046	1390.96	71.604	-91.598	1365.016	74.372	-399.507	1415.499	83.903	-158.224	1391.133	83.762	-337.083	1342.792	42.601	-144.04	1317.634	42.912	-352.08	1489.604	1370.359	-233.899	1570.73	1206.134	-244.246	1376.618	1437.46	-238.287	1498.911	1359.26	-181.79	1512.709	1365.089	-288.596	1525.616	39.276	-100.066	1500.551	41.393	-401.958	1506.352	590.808	-9.269	1595.968	552.755	-340.835	1522.107	650.782	-82.042	1534.878	618.369	-381.019	1513.456	563.589	-96.825	1508.384	535.47	-385.103	1417.728	204.786	-5.463	1405.862	212.115	-479.329	1406.348	172.206	-78.039	1384.8	174.046	-410.248
	8	1.08333	1471.836	881.725	-251.316	1468.874	879.837	-176.183	1474.797	883.613	-326.449	1442.469	469.898	-131.794	1431.895	460.923	-354.566	1405.474	69.996	-128.853	1382.79	71.226	-364.926	1566.186	959.712	-245.637	1561.482	956.714	-126.303	1570.889	962.711	-364.972	1382.425	1018.222	-219.987	1388.336	1016.933	-305.222	1451.716	475.528	-74.305	1439.871	463.93	-411.936	1427.082	476.526	-183.43	1427.095	465.73	-300.887	1390.962	71.613	-91.614	1365.021	74.384	-399.499	1415.471	83.909	-158.197	1391.289	83.821	-337.06	1342.774	42.582	-144.01	1317.605	42.921	-352.059	1489.603	1370.399	-233.863	1570.812	1206.226	-244.382	1376.723	1437.386	-238.359	1498.967	1359.275	-181.765	1512.659	1365.174	-288.591	1525.613	39.306	-100.183	1500.532	41.409	-401.975	1506.35	590.796	-9.267	1596.063	552.756	-340.874	1522.11	650.758	-82.036	1534.893	618.392	-381.164	1513.459	563.624	-96.839	1508.384	535.47	-385.103	1417.735	204.789	-5.463	1405.891	212.125	-479.281	1406.44	172.258	-78.013	1384.737	174.029	-410.223
	9	1.09167	1471.783	881.702	-251.342	1468.812	879.796	-176.21	1474.754	883.608	-326.474	1442.49	469.889	-131.804	1431.931	460.897	-354.61	1405.484	70.004	-128.862	1382.797	71.24	-364.918	1566.136	959.684	-245.633	1561.416	956.655	-126.267	1570.856	962.712	-364.999	1382.454	1018.17	-220.05	1388.325	1016.923	-305.286	1451.726	475.524	-74.313	1439.907	463.908	-411.98	1426.934	476.713	-183.427	1427.172	465.913	-300.694	1390.965	71.621	-91.625	1365.028	74.395	-399.491	1415.461	83.812	-158.151	1391.512	83.904	-337.036	1342.754	42.562	-143.975	1317.579	42.923	-352.044	1489.594	1370.438	-233.905	1570.794	1206.261	-244.433	1376.694	1437.449	-238.421	1498.921	1359.292	-181.785	1512.686	1365.232	-288.638	1525.632	39.322	-100.18	1500.52	41.402	-401.978	1506.358	590.802	-9.272	1596.185	552.791	-340.981	1522.214	650.779	-81.959	1534.964	618.441	-381.299	1513.43	563.638	-96.797	1508.384	535.47	-385.103	1417.738	204.793	-5.465	1405.901	212.111	-479.255	1406.279	172.193	-78.109	1384.835	174.093	-410.223
	10	1.1	1471.727	881.671	-251.44	1468.732	879.736	-176.31	1474.723	883.606	-326.57	1442.522	469.863	-131.83	1431.923	460.885	-354.637	1405.496	69.998	-128.865	1382.783	71.255	-364.908	1566.087	959.639	-245.669	1561.329	956.565	-126.317	1570.846	962.713	-365.022	1382.431	1018.132	-220.108	1388.295	1016.922	-305.328	1451.743	475.513	-74.339	1439.919	463.884	-412.005	1426.841	476.716	-183.302	1427.273	466.008	-300.547	1390.966	71.619	-91.632	1365.026	74.406	-399.487	1415.502	83.729	-158.163	1391.523	83.883	-337.024	1342.737	42.551	-143.94	1317.559	42.921	-352.038	1489.576	1370.453	-233.887	1570.939	1206.38	-244.767	1376.537	1437.439	-238.51	1498.885	1359.191	-181.751	1512.703	1365.401	-288.662	1525.666	39.317	-100.032	1500.522	41.369	-401.975	1506.379	590.832	-9.28	1596.291	552.835	-341.109	1522.246	650.755	-81.919	1535.025	618.482	-381.368	1513.408	563.625	-96.721	1508.384	535.47	-385.103	1417.743	204.797	-5.467	1405.901	212.073	-479.26	1406.247	172.129	-78.142	1384.982	174.162	-410.241
	11	1.10833	1471.673	881.639	-251.569	1468.649	879.671	-176.441	1474.697	883.607	-326.697	1442.571	469.825	-131.876	1431.886	460.881	-354.653	1405.505	69.975	-128.864	1382.751	71.26	-364.902	1566.044	959.589	-245.728	1561.241	956.464	-126.416	1570.846	962.715	-365.04	1382.362	1018.116	-220.158	1388.25	1016.927	-305.366	1451.767	475.492	-74.382	1439.913	463.862	-412.018	1426.939	476.494	-183.217	1427.459	465.917	-300.48	1390.959	71.604	-91.638	1365.013	74.407	-399.492	1415.534	83.773	-158.236	1391.45	83.786	-337.086	1342.725	42.552	-143.911	1317.544	42.928	-352.042	1489.498	1370.457	-233.764	1571.083	1206.527	-245.135	1376.434	1437.328	-238.644	1498.798	1359.039	-181.601	1512.656	1365.612	-288.606	1525.703	39.306	-99.779	1500.527	41.312	-401.969	1506.4	590.875	-9.285	1596.361	552.867	-341.218	1522.172	650.671	-81.982	1534.993	618.564	-381.338	1513.435	563.595	-96.71	1508.384	535.47	-385.103	1417.743	204.805	-5.466	1405.905	212.03	-479.276	1406.331	172.186	-78.108	1385.066	174.13	-410.309
